<svg xmlns="http://www.w3.org/2000/svg" width="212" height="24" fill="none"><path fill="#3D3D3D" d="M11.237 6.774H7.962v-.738q0-1.125-.546-1.927-.513-.834-1.766-.834-.675 0-1.091.257a2.15 2.15 0 0 0-.674.642q-.258.417-.353.963a6 6 0 0 0-.097 1.091q0 .675.032 1.124.065.45.257.803.193.352.546.61a5.7 5.7 0 0 0 1.027.513l2.504.995q1.092.418 1.766.996.675.546 1.06 1.284.353.77.481 1.766.129.963.129 2.215 0 1.445-.29 2.697-.288 1.22-.93 2.086-.674.9-1.766 1.413-1.092.514-2.665.514a5.8 5.8 0 0 1-2.215-.418 5.3 5.3 0 0 1-1.766-1.155 5.9 5.9 0 0 1-1.188-1.702A5.5 5.5 0 0 1 0 17.82v-1.22h3.275v1.026q0 .9.513 1.638.546.705 1.798.706.836 0 1.284-.225a1.8 1.8 0 0 0 .739-.706q.256-.45.289-1.06.064-.642.064-1.412 0-.9-.064-1.477-.065-.577-.257-.93a1.76 1.76 0 0 0-.61-.579 6.6 6.6 0 0 0-.963-.481l-2.344-.963q-2.118-.867-2.857-2.28Q.16 8.411.16 6.26q0-1.284.353-2.44a5.55 5.55 0 0 1 1.06-1.99 4.7 4.7 0 0 1 1.7-1.316Q4.335 0 5.78 0q1.22 0 2.215.45Q9.022.9 9.76 1.636q1.477 1.542 1.477 3.532zM18.088 23.244V3.467H14.3V.385h10.851v3.082h-3.788v19.777zM29.1 3.275V0h3.275v3.275zM29.1 23.244V7h3.275v16.244zM48.695 16.534v1.413q0 1.059-.418 2.022a5.4 5.4 0 0 1-1.091 1.67 5.5 5.5 0 0 1-1.67 1.187 4.9 4.9 0 0 1-2.022.418q-.931 0-1.895-.257a4.5 4.5 0 0 1-1.733-.899 5.2 5.2 0 0 1-1.284-1.637q-.482-1.028-.482-2.6V5.264q0-1.124.385-2.087a4.9 4.9 0 0 1 1.092-1.67 4.9 4.9 0 0 1 1.67-1.09A5.6 5.6 0 0 1 43.428 0q2.311 0 3.757 1.509.705.737 1.091 1.766.418.994.418 2.183v1.284H45.42V5.65q0-.963-.546-1.669t-1.477-.706q-1.22 0-1.637.77-.385.739-.385 1.894v11.686q0 .995.417 1.67.45.674 1.573.674.321 0 .674-.096.386-.128.707-.386.288-.256.481-.706t.193-1.123v-1.124zM53.1 23.244V.385h3.275V10.82h.064L61.222.385h3.275l-4.462 9.15 5.297 13.709h-3.467L58.14 13.099l-1.766 3.307v6.838zM70.1 23.244V.385h3.146l4.206 12.104h.064L81.69.385h3.178v22.859h-3.274V9.342h-.065l-3.242 9.824h-1.638l-3.21-9.824h-.064v13.902zM97.19 15.25l-1.605-8.283h-.064l-1.605 8.283zm-8.09 7.994L94.205.385h2.729l5.104 22.859h-3.274l-.963-4.912h-4.463l-.963 4.912zM106 23.244V.385h3.146l4.945 13.773h.064V.385h3.274v22.859h-3.082l-5.008-13.741h-.064v13.74zM121 23.244v-3.275h3.275v3.275zM128 23.244V.385h4.848q2.826 0 4.27 1.541 1.477 1.541 1.477 4.367v10.69q0 3.21-1.573 4.752-1.541 1.509-4.463 1.509zm3.275-19.777v16.695h1.509q1.38 0 1.958-.674.578-.707.578-2.184V6.293q0-1.35-.545-2.087-.546-.74-1.991-.739zM144 23.244V.385h9.76v3.082h-6.485v6.71h5.65v3.082h-5.65v6.71h6.485v3.275zM169.237 6.774h-3.275v-.738q0-1.125-.546-1.927-.514-.834-1.765-.834-.675 0-1.092.257a2.15 2.15 0 0 0-.674.642q-.257.417-.353.963a6 6 0 0 0-.097 1.091q0 .675.032 1.124.065.45.257.803.194.352.546.61.385.256 1.027.513l2.505.995q1.091.418 1.765.996.675.546 1.06 1.284.353.77.481 1.766.129.963.129 2.215 0 1.445-.289 2.697-.29 1.22-.931 2.086-.675.9-1.766 1.413-1.092.514-2.665.514-1.188 0-2.215-.418a5.3 5.3 0 0 1-1.766-1.155 5.9 5.9 0 0 1-1.187-1.702 5.5 5.5 0 0 1-.418-2.15v-1.22h3.275v1.026q0 .9.514 1.638.545.705 1.797.706.835 0 1.285-.225.482-.256.738-.706.257-.45.289-1.06.064-.642.064-1.412 0-.9-.064-1.477t-.257-.93a1.76 1.76 0 0 0-.61-.579 6.6 6.6 0 0 0-.963-.481l-2.344-.963q-2.119-.867-2.857-2.28-.706-1.445-.706-3.596 0-1.284.353-2.44a5.5 5.5 0 0 1 1.059-1.99 4.74 4.74 0 0 1 1.702-1.316Q162.335 0 163.779 0q1.22 0 2.215.45 1.028.45 1.766 1.187 1.477 1.542 1.477 3.532zM175 3.275V0h3.275v3.275zM175 23.244V7h3.275v16.244zM183.8 5.586q0-1.38.482-2.44a5.16 5.16 0 0 1 1.284-1.765A5.5 5.5 0 0 1 187.3.353 5.9 5.9 0 0 1 189.29 0q.995 0 1.959.353a5.8 5.8 0 0 1 1.797 1.027q.77.707 1.252 1.766.483 1.06.482 2.44v1.156h-3.275V5.586q0-1.188-.674-1.733a2.22 2.22 0 0 0-1.541-.578q-.899 0-1.573.578-.642.545-.642 1.733v12.072q0 1.187.642 1.765.674.546 1.573.546t1.541-.546q.674-.577.674-1.765v-4.303h-1.827v-2.889h5.102v7.192q0 1.445-.482 2.472a5.1 5.1 0 0 1-1.252 1.701 5.5 5.5 0 0 1-1.797 1.06 5.7 5.7 0 0 1-1.959.353 5.9 5.9 0 0 1-1.99-.353 5.2 5.2 0 0 1-1.734-1.06 4.9 4.9 0 0 1-1.284-1.701q-.482-1.028-.482-2.472zM200 23.244V.385h3.146l4.945 13.773h.064V.385h3.275v22.859h-3.083l-5.008-13.741h-.064v13.74z"/></svg>